<svg xmlns="http://www.w3.org/2000/svg" width="1200" height="750" viewBox="0 0 1200 750" fill="none">
  <rect width="1200" height="750" rx="24" fill="#0E0E0F"/>
  <g transform="translate(380,180)" stroke="#ffffff" stroke-opacity="0.9" stroke-width="6" fill="none" stroke-linecap="round">
    <path d="M160 360c-90 0-160-70-160-160 0-24 5-46 14-66"/>
    <path d="M120 240c0-80 140-80 140 0 0 40-20 60-40 80"/>
    <path d="M260 230c30-40 80-20 80 20 0 34-18 52-36 70"/>
    <path d="M220 210c30-40 80-20 80 20 0 20-6 32-18 44"/>
    <path d="M180 200c30-40 80-20 80 20"/>
  </g>
  <circle cx="980" cy="580" r="18" fill="#ff004f"/>
</svg>
